<?xml version="1.0" encoding="UTF-8"?>
<svg version="1.1" xmlns="http://www.w3.org/2000/svg" width="576" height="93">
<path d="M0 0 C16.5 0 33 0 50 0 C50 6.6 50 13.2 50 20 C41.09 20 32.18 20 23 20 C23 24.62 23 29.24 23 34 C31.25 34 39.5 34 48 34 C48 40.6 48 47.2 48 54 C39.75 54 31.5 54 23 54 C23 58.62 23 63.24 23 68 C47.86028427 70.50414012 47.86028427 70.50414012 71.44091797 65.18457031 C76.09574701 60.99711528 78.84867054 56.04542598 81.07470703 50.24072266 C81.96624301 48.08174714 82.97818111 46.53330531 84.40234375 44.69921875 C84.92957031 43.80847656 85.45679688 42.91773438 86 42 C84.71052529 37.13414054 81.54854408 33.05656747 78.7734375 28.92578125 C78.01191879 27.77821602 78.01191879 27.77821602 77.23501587 26.60746765 C75.61931542 24.17291545 73.99788957 21.74226487 72.375 19.3125 C70.231787 16.10367594 68.09451543 12.89101747 65.9609375 9.67578125 C65.46411469 8.93620682 64.96729187 8.19663239 64.45541382 7.43464661 C61 2.22561966 61 2.22561966 61 0 C70.57 0 80.14 0 90 0 C91.65 3.09375 93.3 6.1875 95 9.375 C95.52207031 10.34872559 96.04414062 11.32245117 96.58203125 12.32568359 C97.19111328 13.47544678 97.19111328 13.47544678 97.8125 14.6484375 C98.23144531 15.43395996 98.65039062 16.21948242 99.08203125 17.02880859 C100 19 100 19 100 21 C100.66 21 101.32 21 102 21 C102.33837891 20.00226562 102.33837891 20.00226562 102.68359375 18.984375 C104.39810945 15.09746108 106.67645864 11.7531272 109.0625 8.25 C109.75182617 7.22326172 109.75182617 7.22326172 110.45507812 6.17578125 C113.83080832 1.16919168 113.83080832 1.16919168 115 0 C117.07262076 -0.08767112 119.14820294 -0.10695873 121.22265625 -0.09765625 C122.48271484 -0.09443359 123.74277344 -0.09121094 125.04101562 -0.08789062 C126.38151109 -0.07953403 127.72200588 -0.07106907 129.0625 -0.0625 C130.40689942 -0.0574866 131.7513006 -0.05292342 133.09570312 -0.04882812 C136.39717941 -0.03699488 139.69856803 -0.02050971 143 0 C142.39830855 3.00763244 141.49073223 5.03129344 139.69921875 7.51171875 C138.98354736 8.51295776 138.98354736 8.51295776 138.25341797 9.53442383 C137.47828857 10.60019653 137.47828857 10.60019653 136.6875 11.6875 C135.60018363 13.20567417 134.51294645 14.72390507 133.42578125 16.2421875 C132.8632666 17.02303711 132.30075195 17.80388672 131.72119141 18.60839844 C128.92211313 22.49772763 126.14679868 26.40370602 123.375 30.3125 C122.86670654 31.02301514 122.35841309 31.73353027 121.8347168 32.46557617 C121.36074463 33.13306885 120.88677246 33.80056152 120.3984375 34.48828125 C119.98255371 35.07134033 119.56666992 35.65439941 119.13818359 36.25512695 C117.92963373 38.10787381 116.95240875 40.00519327 116 42 C116.66644531 42.8971875 117.33289063 43.794375 118.01953125 44.71875 C123.95527376 52.74255143 129.72192368 60.86014867 135.33984375 69.109375 C137.10264019 71.69765403 138.8859326 74.26943547 140.69140625 76.828125 C141.11276855 77.42737793 141.53413086 78.02663086 141.96826172 78.64404297 C143.11531484 80.27251846 144.26650445 81.89807808 145.41796875 83.5234375 C147 86 147 86 147 88 C142.48053727 88.29163613 137.96349508 88.46839117 133.4375 88.625 C132.16068359 88.70878906 130.88386719 88.79257813 129.56835938 88.87890625 C120.28965753 89.11991149 120.28965753 89.11991149 116.70922852 86.01074219 C114.87992644 83.42371025 113.42334102 80.82832623 112 78 C111.12797273 76.59658355 110.24488224 75.19994182 109.34765625 73.8125 C108.582149 72.54394513 107.82033076 71.27315567 107.0625 70 C106.66482422 69.34644531 106.26714844 68.69289063 105.85742188 68.01953125 C103 63.24896461 103 63.24896461 103 61 C98.61313668 65.07178474 95.31784511 69.57617655 91.9375 74.5 C90.90643045 75.99060991 89.87391193 77.48021874 88.83984375 78.96875 C88.38988037 79.62294922 87.93991699 80.27714844 87.47631836 80.95117188 C86.74554077 81.9653418 86.74554077 81.9653418 86 83 C85.47416824 83.85554977 84.94833649 84.71109955 84.40657043 85.59257507 C81.6548182 88.34530437 80.12745519 88.58418838 76.30283737 88.62214375 C75.54902409 88.6041532 74.7952108 88.58616266 74.01855469 88.56762695 C73.20527332 88.56822963 72.39199196 88.5688323 71.5540657 88.56945324 C68.92596888 88.56572623 66.29965378 88.52768062 63.671875 88.48828125 C62.04769748 88.48092813 60.42350814 88.47582828 58.79931641 88.47302246 C52.7826967 88.44682754 46.76633077 88.37702105 40.75 88.3125 C27.3025 88.209375 13.855 88.10625 0 88 C0 58.96 0 29.92 0 0 Z " fill="#000000" transform="translate(427,2)"/>
<path d="M0 0 C50.85691318 0 50.85691318 0 64.375 12.625 C73.14645625 22.0028431 77.58318791 33.54228213 77.24609375 46.33203125 C76.15017299 58.21320394 71.3508852 68.45490817 63 77 C43.37566625 92.28470613 26.81531767 88 0 88 C0 58.96 0 29.92 0 0 Z M24 20 C24 35.84 24 51.68 24 68 C32.13634695 68 38.78548752 67.53718012 45.1875 62.1640625 C51.12929826 55.70235689 52.55422131 49.78396337 52.37109375 41.1015625 C51.55131517 34.2499394 48.55488771 28.89244702 43.25 24.5 C37.1216899 20.40675137 31.23715794 20 24 20 Z " fill="#D3313A" transform="translate(221,2)"/>
<path d="M0 0 C8.58 0 17.16 0 26 0 C34.36686183 21.60058635 42.72468078 43.20482043 50.99755859 64.84161377 C51.70750219 66.69715927 52.41860267 68.55226255 53.13085938 70.40692139 C54.123028 72.99141128 55.11093313 75.57748959 56.09765625 78.1640625 C56.39370255 78.93284729 56.68974884 79.70163208 56.99476624 80.49371338 C59 85.77132744 59 85.77132744 59 88 C50.75 88 42.5 88 34 88 C30 78 30 78 29 73 C18.44 73 7.88 73 -3 73 C-3.66 75.97 -4.32 78.94 -5 82 C-5.66 83.98 -6.32 85.96 -7 88 C-15.58 88 -24.16 88 -33 88 C-27.96954088 73.40298384 -22.62104691 58.96552091 -17.0625 44.5625 C-16.29463873 42.56716623 -15.52705996 40.57172373 -14.75976562 38.57617188 C-13.62388441 35.62215578 -12.48779564 32.66822189 -11.35049438 29.7147522 C-7.54104024 19.819675 -3.76946033 9.91037863 0 0 Z M13 29 C10.61437967 34.78412973 8.37211116 40.61413014 6.25 46.5 C5.82203125 47.6859375 5.3940625 48.871875 4.953125 50.09375 C3.89612457 52.80697636 3.89612457 52.80697636 4 55 C9.94 55 15.88 55 22 55 C21.32041156 50.92246937 20.71871294 47.81239622 19.37109375 44.0390625 C19.05849609 43.15605469 18.74589844 42.27304687 18.42382812 41.36328125 C18.09833984 40.45964844 17.77285156 39.55601563 17.4375 38.625 C17.10814453 37.69816406 16.77878906 36.77132812 16.43945312 35.81640625 C15.6307437 33.54264353 14.81748642 31.2706187 14 29 C13.67 29 13.34 29 13 29 Z " fill="#D3313A" transform="translate(153,2)"/>
<path d="M0 0 C16.5 0 33 0 50 0 C50 6.6 50 13.2 50 20 C41.09 20 32.18 20 23 20 C23 24.62 23 29.24 23 34 C31.58 34 40.16 34 49 34 C49 40.6 49 47.2 49 54 C40.42 54 31.84 54 23 54 C23 58.62 23 63.24 23 68 C31.91 68 40.82 68 50 68 C50 74.6 50 81.2 50 88 C33.5 88 17 88 0 88 C0 58.96 0 29.92 0 0 Z " fill="#D3313A" transform="translate(61,2)"/>
<path d="M0 0 C16.83 0 33.66 0 51 0 C51 6.6 51 13.2 51 20 C42.09 20 33.18 20 24 20 C24 24.62 24 29.24 24 34 C31.92 34 39.84 34 48 34 C48 40.6 48 47.2 48 54 C40.08 54 32.16 54 24 54 C24 65.22 24 76.44 24 88 C16.08 88 8.16 88 0 88 C0 58.96 0 29.92 0 0 Z " fill="#000000" transform="translate(307,2)"/>
<path d="M0 0 C7.92 0 15.84 0 24 0 C24 22.44 24 44.88 24 68 C32.91 68 41.82 68 51 68 C51 74.6 51 81.2 51 88 C34.17 88 17.34 88 0 88 C0 58.96 0 29.92 0 0 Z " fill="#D3313A" transform="translate(1,2)"/>
<path d="M0 0 C7.59 0 15.18 0 23 0 C23 22.44 23 44.88 23 68 C31.91 68 40.82 68 50 68 C50 74.6 50 81.2 50 88 C33.5 88 17 88 0 88 C0 58.96 0 29.92 0 0 Z " fill="#000000" transform="translate(367,2)"/>
</svg>
