<svg class="brandLogo" xmlns="http://www.w3.org/2000/svg" viewBox="0 0 189.83 163.29">
    <defs><style>.cls-1{fill:#d6112f;}</style></defs>
    <path class="cls-1" d="M159.37,155.42v-1.85h1.16c.62,0,1.48.05,1.48.85s-.44,1-1.18,1Zm0,1.31h.78l1.78,3.25h2l-2-3.38a1.81,1.81,0,0,0,1.88-1.74,2.26,2.26,0,0,0,0-.26c0-1.77-1.18-2.34-3.18-2.34h-2.88V160h1.65Zm8.4-.61a7.2,7.2,0,1,0-7.23,7.17h0a7,7,0,0,0,7.21-6.78v-.39Zm-2.07,0a5.23,5.23,0,0,1-4.92,5.52h-.22a5.48,5.48,0,1,1,5.14-6.15c0,.21,0,.43,0,.64Z"></path>
    <path class="cls-1" d="M47.79,162.28,0,81.2,47.79,0H141.6l48.23,81.2L141.6,162.28Zm87.8-10.41,42-70.68-42-70.78H53.82L12.17,81.19l41.65,70.68ZM17.23,81.19,55.34,16.44c5.7,20.36-1.82,42-5.72,50.1a80.07,80.07,0,0,1-24,28.93ZM38.31,117c4-4.65,14.9-19.16,19.11-35.09a138.49,138.49,0,0,0,4.64-42.74c3.65,9.63,9,29,12.5,42s17,61.29,18.46,66.37H56.32Zm57,30.56c2.88-9.73,15.58-49.06,21-66.37,4.13-13.17,9.85-32.69,13.06-41.31,0,0-2.31,24.07,4,42.69,4.59,13.59,10.15,25.8,17.48,35.19l-17.73,29.8Zm68.07-50.89c-7.53-6.86-21.18-20.51-25.16-36.88s-5.09-30.1-2.21-40.06l36.54,61.51ZM134,16.35,94.58,81.12,57.45,14.78h75.6Z"></path>
</svg>