

<svg version="1.1" id="logo" xmlns="http://www.w3.org/2000/svg" xmlns:xlink="http://www.w3.org/1999/xlink" x="0px" y="0px"
     viewBox="0 0 358.5 130.9" style="enable-background:new 0 0 358.5 130.9;" xml:space="preserve">
<style type="text/css">
	.st0{fill:#F59688;}
	.st1{fill:#7ACBC7;}
	.st2{fill:#D595C1;}
	.st3{fill:#8878B7;}
	.st4{fill:#78B6E3;}
	.st5{fill:#C3DE9A;}
	.st6{fill:#FFC10E;}
	.st7{fill:url(#SVGID_1_);}
	.st8{fill:url(#SVGID_2_);}
	.st9{fill:url(#SVGID_3_);}
	.st10{fill:url(#SVGID_4_);}
	.st11{fill:url(#SVGID_5_);}
	.st12{fill:url(#SVGID_6_);}
	.st13{fill:url(#SVGID_7_);}
	.st14{fill:#ECEB81;}
	.st15{fill:none;}
	.st16{opacity:0.85;}
	.st17{fill:#EC1C24;}
	.st18{fill:#00A9B1;}
	.st19{fill:#D10F8B;}
	.st20{fill:#4B2F91;}
	.st21{fill:#0081C8;}
	.st22{fill:#00A675;}
	.st23{fill:#8BC53F;}
	.st24{fill:#F47E20;}
	.st25{fill:#EC0972;}
	.st26{fill:#90278E;}
	.st27{fill:#0054A5;}
	.st28{fill:#00ADEE;}
	.st29{fill:#00AB4E;}
	.st30{fill:#E6E414;}
	.st31{fill:#FFFFFF;}
	.st32{fill:#231F20;}
</style>
    <g>
	<g>
		<g>
			<path class="st0" d="M243.9,49.4c-9.9-6.7-24.1-1.5-26.7,10.3C227.3,66.8,242,61.6,243.9,49.4"/>
            <path class="st1" d="M188.4,70.8c-9.9-6.7-24.1-1.5-26.7,10.3C171.9,88.2,186.5,83,188.4,70.8"/>
            <path class="st2" d="M243.4,83.6c-2.2-11.7-16-18.1-26.1-11.6C219.4,84.2,233.4,90.8,243.4,83.6"/>
            <path class="st3" d="M218.9,107.3c6.7-9.9,1.5-24.1-10.3-26.7C201.5,90.8,206.7,105.4,218.9,107.3"/>
            <path class="st4" d="M184.8,106.9c11.7-2.2,18.1-16,11.6-26.1C184.2,82.8,177.5,96.9,184.8,106.9"/>
            <path class="st1" d="M161.5,48.3c2.2,11.7,16,18.1,26.1,11.6C185.5,47.7,171.5,41,161.5,48.3"/>
            <path class="st5" d="M186,24.5c-6.7,9.9-1.5,24.1,10.3,26.7C203.4,41,198.2,26.4,186,24.5"/>
            <path class="st6" d="M220.1,25c-11.7,2.2-18.1,16-11.6,26.1C220.7,49,227.4,35,220.1,25"/>

            <linearGradient id="SVGID_1_" gradientUnits="userSpaceOnUse" x1="236.9757" y1="85.6914" x2="242.0091" y2="109.3716" gradientTransform="matrix(1 0 0 -1 0 127.324)">
				<stop  offset="0" style="stop-color:#F9A851"/>
                <stop  offset="0.3884" style="stop-color:#FBB66D"/>
                <stop  offset="0.7471" style="stop-color:#FCC07F"/>
                <stop  offset="1" style="stop-color:#FCC386"/>
			</linearGradient>
            <path class="st7" d="M249.3,19.5c-11.8-2-22.5,8.7-19.9,20.5C241.5,42.2,252.6,31.4,249.3,19.5"/>

            <linearGradient id="SVGID_2_" gradientUnits="userSpaceOnUse" x1="239.463" y1="60.0616" x2="268.059" y2="60.0616" gradientTransform="matrix(1 0 0 -1 0 127.324)">
				<stop  offset="0" style="stop-color:#F399C0"/>
                <stop  offset="1" style="stop-color:#EF5A8D"/>
			</linearGradient>
            <path class="st8" d="M268.1,67.1c-6.7-9.9-21.9-10.2-28.6-0.1C246.3,77.3,261.8,77.8,268.1,67.1"/>

            <linearGradient id="SVGID_3_" gradientUnits="userSpaceOnUse" x1="250.1018" y1="18.4769" x2="225.8951" y2="31.3478" gradientTransform="matrix(1 0 0 -1 0 127.324)">
				<stop  offset="2.450000e-02" style="stop-color:#C68DBE"/>
                <stop  offset="0.1843" style="stop-color:#C387BB"/>
                <stop  offset="0.4059" style="stop-color:#B975B3"/>
                <stop  offset="0.6636" style="stop-color:#AA57A5"/>
                <stop  offset="0.9467" style="stop-color:#942F92"/>
                <stop  offset="0.9939" style="stop-color:#90278E"/>
			</linearGradient>
            <path class="st9" d="M248.3,112.2c2-11.8-8.6-22.6-20.4-20.1C225.6,104.3,236.4,115.5,248.3,112.2"/>

            <linearGradient id="SVGID_4_" gradientUnits="userSpaceOnUse" x1="202.6164" y1="-3.574" x2="202.6164" y2="24.995" gradientTransform="matrix(1 0 0 -1 0 127.324)">
				<stop  offset="0" style="stop-color:#81B2DF"/>
                <stop  offset="0.3787" style="stop-color:#739FD3"/>
                <stop  offset="0.9939" style="stop-color:#5579BB"/>
			</linearGradient>
            <path class="st10" d="M203.4,130.9c9.5-7.2,9.2-22.3-1.2-28.6C192.2,109.6,192.5,125.2,203.4,130.9"/>

            <linearGradient id="SVGID_5_" gradientUnits="userSpaceOnUse" x1="154.5832" y1="27.1837" x2="175.7868" y2="27.1837" gradientTransform="matrix(1 0 0 -1 0 127.324)">
				<stop  offset="2.450000e-02" style="stop-color:#A7DFF8"/>
                <stop  offset="0.258" style="stop-color:#82D8F7"/>
                <stop  offset="0.7746" style="stop-color:#27C5F3"/>
                <stop  offset="0.9816" style="stop-color:#00BDF2"/>
			</linearGradient>
            <path class="st11" d="M155.1,110.2c11.7,2.2,22.7-8.2,20.4-20.1C163.4,87.6,152,98.2,155.1,110.2"/>

            <linearGradient id="SVGID_6_" gradientUnits="userSpaceOnUse" x1="137.35" y1="60.8485" x2="165.904" y2="60.8485" gradientTransform="matrix(1 0 0 -1 0 127.324)">
				<stop  offset="2.450000e-02" style="stop-color:#5EC3B2"/>
                <stop  offset="0.3654" style="stop-color:#3BB9B2"/>
                <stop  offset="0.9816" style="stop-color:#00A9B1"/>
			</linearGradient>
            <path class="st12" d="M137.4,67.4c7.3,9.4,22.4,8.9,28.6-1.5C158.5,56,143,56.4,137.4,67.4"/>

            <linearGradient id="SVGID_7_" gradientUnits="userSpaceOnUse" x1="155.6049" y1="97.8713" x2="176.9616" y2="97.8713" gradientTransform="matrix(1 0 0 -1 0 127.324)">
				<stop  offset="6.100000e-03" style="stop-color:#9FD084"/>
                <stop  offset="0.2592" style="stop-color:#8ECB85"/>
                <stop  offset="0.7195" style="stop-color:#74C486"/>
                <stop  offset="0.9939" style="stop-color:#6AC186"/>
			</linearGradient>
            <path class="st13" d="M155.8,19.8c-1.7,11.8,9.2,22.3,21,19.5C178.7,27.1,167.6,16.2,155.8,19.8"/>
            <path class="st14" d="M201.9,0c-9.6,7.1-9.3,22.3,1,28.6C212.9,21.4,212.8,5.8,201.9,0"/>
            <path class="st15" d="M243.9,49.4c-1.9,12.2-16.6,17.4-26.7,10.3C219.8,47.9,234,42.7,243.9,49.4 M188.4,70.8
				c-9.9-6.7-24.1-1.5-26.7,10.3C171.9,88.2,186.5,83,188.4,70.8 M243.4,83.6c-2.2-11.7-16-18.1-26.1-11.6
				C219.4,84.2,233.4,90.8,243.4,83.6 M218.9,107.3c6.7-9.9,1.5-24.1-10.3-26.7C201.5,90.8,206.7,105.4,218.9,107.3 M184.8,106.9
				c11.7-2.2,18.1-16,11.6-26.1C184.2,82.8,177.5,96.9,184.8,106.9 M161.5,48.3c2.2,11.7,16,18.1,26.1,11.6
				C185.5,47.7,171.5,41,161.5,48.3 M186,24.5c-6.7,9.9-1.5,24.1,10.3,26.7C203.4,41,198.2,26.4,186,24.5 M220.1,25
				c-11.7,2.2-18.1,16-11.6,26.1C220.7,49,227.4,35,220.1,25 M249.3,19.5c-11.8-2-22.5,8.7-19.9,20.5
				C241.5,42.2,252.6,31.4,249.3,19.5 M268.1,67.1c-6.7-9.9-21.9-10.2-28.6-0.1C246.3,77.3,261.8,77.8,268.1,67.1 M248.3,112.2
				c2-11.8-8.6-22.6-20.4-20.1C225.6,104.3,236.4,115.5,248.3,112.2 M204,130.8c9.5-7.2,9.2-22.3-1.2-28.6
				C192.8,109.5,193,125,204,130.8 M155.1,110.2c11.7,2.2,22.7-8.2,20.4-20.1C163.4,87.6,152,98.2,155.1,110.2 M137.4,67.4
				c7.3,9.4,22.4,8.9,28.6-1.5C158.5,56,143,56.4,137.4,67.4 M155.8,19.8c-1.7,11.8,9.2,22.3,21,19.5
				C178.7,27.1,167.6,16.2,155.8,19.8 M201.9,0c-9.6,7.1-9.3,22.3,1,28.6C212.9,21.4,212.8,5.8,201.9,0"/>
		</g>
        <g class="st16">
			<g>
				<path class="st17" d="M237.9,65.9c-5.2-7.8-17.1-8.2-22.5-0.4C220.6,73.7,232.8,74.2,237.9,65.9"/>
                <path class="st18" d="M191.1,65.2c-5.2-7.8-17.1-8.2-22.5-0.4C173.9,73,186.1,73.5,191.1,65.2"/>
                <path class="st19" d="M227.4,90.7c1.8-9.2-6.3-17.9-15.7-16.2C209.7,84,218,93,227.4,90.7"/>
                <path class="st20" d="M202.6,100.8c7.8-5.2,8.2-17.1,0.4-22.5C194.7,83.6,194.2,95.8,202.6,100.8"/>
                <path class="st21" d="M177.8,90.4c9.2,1.8,17.9-6.3,16.2-15.7C184.5,72.7,175.4,80.9,177.8,90.4"/>
                <path class="st22" d="M178.1,40.7c-1.8,9.2,6.3,17.9,15.7,16.2C195.8,47.4,187.5,38.4,178.1,40.7"/>
                <path class="st23" d="M203,30.6c-7.8,5.2-8.2,17.1-0.4,22.5C210.8,47.8,211.3,35.6,203,30.6"/>
                <path class="st6" d="M227.7,41c-9.2-1.8-17.9,6.3-16.2,15.7C221.1,58.7,230.1,50.4,227.7,41"/>
                <path class="st24" d="M250.6,45.6c-8-4.9-19-0.3-20.6,9.1C238.2,59.9,249.6,55.3,250.6,45.6"/>
                <path class="st25" d="M250.3,85.9c-2-9.2-13-13.9-20.8-8.5C231.4,86.9,242.6,91.9,250.3,85.9"/>
                <path class="st26" d="M222.5,113c5-8,0.4-19-9-20.6C208.3,100.6,212.9,111.9,222.5,113"/>
                <path class="st27" d="M184.7,113.5c9.1-2.4,13.3-13.6,7.6-21.2C182.9,94.6,178.5,106,184.7,113.5"/>
                <path class="st28" d="M155.1,84.1c7.9,5.1,19,0.7,20.8-8.6C167.8,70,156.4,74.4,155.1,84.1"/>
                <path class="st18" d="M154.8,47.6c2.5,9,13.8,13.1,21.3,7.3C173.6,45.5,162.1,41.2,154.8,47.6"/>
                <path class="st29" d="M182.3,18.3c-4.7,8.1,0.1,19,9.6,20.4C196.9,30.4,192,19.1,182.3,18.3"/>
                <path class="st30" d="M221.8,17.4c-9.1,2.4-13.4,13.5-7.7,21.1C223.5,36.3,228,24.9,221.8,17.4"/>
			</g>
		</g>
        <g>
			<g>
				<path class="st31" d="M202.7,87c-11.9,0-21.5-9.6-21.5-21.5c0-11.9,9.7-21.5,21.5-21.5c11.9,0,21.5,9.7,21.5,21.5
					C224.2,77.3,214.6,87,202.7,87z M202.7,49.9c-8.6,0-15.5,7-15.5,15.5c0,8.6,7,15.5,15.5,15.5c8.6,0,15.5-7,15.5-15.5
					C218.2,56.9,211.3,49.9,202.7,49.9z"/>
			</g>
            <g>
				<path class="st32" d="M202.7,48.8c9.2,0,16.7,7.5,16.7,16.7c0,9.2-7.5,16.7-16.7,16.7S186,74.7,186,65.5
					C186,56.2,193.5,48.8,202.7,48.8"/>
			</g>
		</g>
	</g>
        <g>
		<path class="st32" d="M253.2,44.1c-1.1,3-1.5,4.7-1.5,11.2v16.9c0,2.9,0.2,4.6,0.9,6.4c2.3,5.6,7.7,7.3,10.7,7.3
			c5,0,9.4-3.8,10.7-8.1c0.2-0.9,0.4-1.7,0.4-4.6V54.8c0-2.1,0-7.1-1.7-10.7h9.9c-0.7,2-1.2,3.4-1.2,9.5v24.8c0,3.2,0,6,1.2,12.2
			h-8.2c0.3-2.7,0.4-3.2,0.3-4.6c-2.7,1.7-8.1,5-14.8,5c-9.6,0-15.1-7.3-15.1-17.9V54.8c0-7.1-0.7-8.7-1.5-10.7H253.2z"/>
            <path class="st32" d="M301.7,53.8c0-5.5-0.7-8-1.2-9.6l9-0.1c12-0.2,17.6,7,17.6,13.3c0,7.6-6.7,11.3-8.8,12.4
			c2.2,3.8,5.1,8.5,9.4,13.4c4,4.6,7.3,9.1,13.7,8.6c0.6,0-5,5.8-10.2,2.8c-6.6-3.8-12.9-12.7-22.5-25.5v11.5c0,3.6,0.1,5.1,1.3,10
			h-9.4c1-4.6,1.2-8,1.2-12L301.7,53.8L301.7,53.8z M308.6,68.4C313,67.2,320,65.2,320,58c0-3.5-2.2-9-11.5-10V68.4z"/>
            <path class="st32" d="M358.5,44.1c-0.9,2.7-1.7,5.3-1.7,12.3v21.4c0,5.3,0.4,7.9,1.7,12.8H348c0.9-2.9,1.8-5.6,1.8-13.3V55.1
			c0-5.3-0.6-8.2-1.8-11H358.5z"/>
	</g>
        <g>
		<path class="st32" d="M10.8,39.2c2.1,2.2,4.7,5.4,7.4,8.6l13.6,16.9l14.8-18.3c1.5-1.8,2.1-2.6,3.6-5.2h9.7c-2.1,2.4-4,4.7-4,11.9
			v24.4c0,3.6,0.1,8.3,2.3,13.1H46.2c1.7-3.7,2.2-7.5,2.2-12.3V54.7L31.7,75.5L14.9,54.7v24.8c0,0.8,0,6.3,2.1,11.1H5.2
			c1-2.3,2.3-5.6,2.3-13.2v-31c0,0,0.4-5.8-7.4-7C5.5,35.1,9.3,37.6,10.8,39.2"/>
            <path class="st32" d="M86.2,44.1c-0.9,2.7-1.7,5.3-1.7,12.3v21.4c0,5.3,0.4,7.9,1.7,12.8H75.7c0.9-2.9,1.8-5.6,1.8-13.3V55.1
			c0-5.3-0.6-8.2-1.8-11H86.2z"/>
            <path class="st32" d="M124.6,53c-2-1.6-4.6-3.7-8.8-3.7c-4,0-7.2,2.6-7.2,6.3c0,4.4,3.9,6.7,9.7,10c6.7,3.8,8.6,7.5,8.6,12
			c0,7.7-6,13.3-15.7,13.3c-3.7,0-5.8-0.6-8-1.2v-9.9c2.1,2.4,4.8,5.6,9.1,5.6c4,0,6.9-3.2,6.9-6.5c0-3.2-2.5-5.3-3.9-6.1
			c-9.9-6.2-13.9-8.7-13.9-15.7c0-7.4,6.1-13.4,13.8-13.4c4.2,0,7.2,1.3,9.4,2.2V53z"/>
            <path class="st32" d="M162.6,53c-2-1.6-4.6-3.7-8.8-3.7c-4,0-7.2,2.6-7.2,6.3c0,4.4,3.9,6.7,9.7,10c6.7,3.8,8.6,7.5,8.6,12
			c0,7.7-6,13.3-15.7,13.3c-3.7,0-5.8-0.6-8-1.2v-9.9c2.1,2.4,4.8,5.6,9.1,5.6c4,0,6.9-3.2,6.9-6.5c0-3.2-2.5-5.3-3.9-6.1
			c-9.9-6.2-13.9-8.7-13.9-15.7c0-7.4,6.1-13.4,13.8-13.4c4.2,0,7.2,1.3,9.4,2.2L162.6,53L162.6,53z"/>
	</g>
</g>
</svg>
