<svg xmlns="http://www.w3.org/2000/svg" xmlns:xlink="http://www.w3.org/1999/xlink" width="480" zoomAndPan="magnify" viewBox="0 0 360 299.999988" height="400" preserveAspectRatio="xMidYMid meet" version="1.0"><defs><clipPath id="04c7f17982"><path d="M 3.960938 6 L 355.710938 6 L 355.710938 295.070312 L 3.960938 295.070312 Z M 3.960938 6 " clip-rule="nonzero"/></clipPath></defs><g clip-path="url(#04c7f17982)"><path fill="#ffffff" d="M 107.097656 291.207031 L 162.496094 235.8125 C 165.332031 232.976562 169.945312 232.980469 172.777344 235.8125 L 221.589844 284.625 C 226.847656 289.882812 235.40625 289.882812 240.664062 284.625 L 257.632812 267.65625 C 260.179688 265.105469 261.582031 261.71875 261.582031 258.113281 C 261.582031 254.507812 260.179688 251.125 257.632812 248.574219 L 177.175781 168.117188 C 171.917969 162.859375 163.355469 162.859375 158.097656 168.117188 L 71.054688 255.164062 C 65.792969 260.425781 65.792969 268.980469 71.054688 274.242188 L 88.019531 291.207031 C 90.648438 293.839844 94.105469 295.152344 97.558594 295.152344 C 101.015625 295.152344 104.46875 293.839844 107.097656 291.207031 Z M 335.109375 253.480469 L 352.078125 236.511719 C 354.625 233.964844 356.027344 230.574219 356.027344 226.972656 C 356.027344 223.371094 354.625 219.980469 352.078125 217.429688 L 239.972656 105.328125 C 234.710938 100.066406 226.152344 100.066406 220.890625 105.328125 L 203.921875 122.292969 C 198.664062 127.550781 198.664062 136.113281 203.921875 141.371094 L 316.03125 253.480469 C 318.660156 256.109375 322.113281 257.421875 325.570312 257.421875 C 329.023438 257.421875 332.480469 256.109375 335.109375 253.480469 Z M 34.421875 232.023438 C 30.820312 232.023438 27.429688 230.621094 24.882812 228.070312 L 7.914062 211.105469 C 5.367188 208.554688 3.964844 205.167969 3.964844 201.566406 C 3.964844 197.960938 5.367188 194.574219 7.914062 192.027344 L 189.839844 10.101562 C 195.097656 4.839844 203.660156 4.839844 208.921875 10.101562 L 225.886719 27.066406 C 231.148438 32.328125 231.148438 40.886719 225.886719 46.144531 L 43.960938 228.070312 C 41.414062 230.621094 38.027344 232.023438 34.421875 232.023438 " fill-opacity="1" fill-rule="nonzero"/></g></svg>