<svg xmlns="http://www.w3.org/2000/svg" xmlns:xlink="http://www.w3.org/1999/xlink" width="365" zoomAndPan="magnify"
     viewBox="0 0 273.75 191.249993" height="255" preserveAspectRatio="xMidYMid meet" version="1.0">
    <defs>
        <g/>
        <clipPath id="5ec2dbfc13">
            <path d="M 102.101562 10.164062 L 170.832031 10.164062 L 170.832031 66.941406 L 102.101562 66.941406 Z M 102.101562 10.164062 "
                  clip-rule="nonzero"/>
        </clipPath>
    </defs>
    <g clip-path="url(#5ec2dbfc13)">
        <path fill="#1f2937"
              d="M 122.316406 66.292969 L 133.171875 55.4375 C 133.726562 54.878906 134.632812 54.878906 135.1875 55.4375 L 144.753906 65.003906 C 145.785156 66.03125 147.460938 66.03125 148.492188 65.003906 L 151.816406 61.675781 C 152.316406 61.175781 152.59375 60.511719 152.59375 59.808594 C 152.59375 59.101562 152.316406 58.4375 151.816406 57.9375 L 136.050781 42.167969 C 135.019531 41.140625 133.339844 41.140625 132.308594 42.167969 L 115.25 59.226562 C 114.21875 60.257812 114.21875 61.9375 115.25 62.96875 L 118.578125 66.292969 C 119.089844 66.808594 119.769531 67.066406 120.445312 67.066406 C 121.125 67.066406 121.800781 66.808594 122.316406 66.292969 Z M 167 58.898438 L 170.328125 55.574219 C 170.828125 55.074219 171.101562 54.410156 171.101562 53.703125 C 171.101562 52.996094 170.828125 52.332031 170.328125 51.832031 L 148.355469 29.863281 C 147.324219 28.832031 145.648438 28.832031 144.617188 29.863281 L 141.292969 33.1875 C 140.261719 34.21875 140.261719 35.898438 141.292969 36.925781 L 163.261719 58.898438 C 163.777344 59.414062 164.453125 59.671875 165.132812 59.671875 C 165.808594 59.671875 166.488281 59.414062 167 58.898438 Z M 108.070312 54.691406 C 107.367188 54.691406 106.703125 54.417969 106.203125 53.917969 L 102.878906 50.59375 C 102.378906 50.09375 102.101562 49.429688 102.101562 48.722656 C 102.101562 48.019531 102.378906 47.355469 102.878906 46.855469 L 138.53125 11.199219 C 139.5625 10.167969 141.238281 10.167969 142.269531 11.199219 L 145.597656 14.527344 C 146.628906 15.554688 146.628906 17.234375 145.597656 18.265625 L 109.941406 53.917969 C 109.441406 54.417969 108.777344 54.691406 108.070312 54.691406 "
              fill-opacity="1" fill-rule="nonzero"/>
    </g>
    <g fill="#1f2937" fill-opacity="1">
        <g transform="translate(77.827268, 109.369718)">
            <g>
                <path d="M 14.6875 -32.140625 L 14.6875 -21.109375 L 22.03125 -21.109375 L 22.03125 -32.140625 L 33.96875 -32.140625 L 33.96875 0 L 22.03125 0 L 22.03125 -11.015625 L 14.6875 -11.015625 L 14.6875 0 L 2.75 0 L 2.75 -32.140625 Z M 14.6875 -32.140625 "/>
            </g>
        </g>
    </g>
    <g fill="#1f2937" fill-opacity="1">
        <g transform="translate(114.557017, 109.369718)">
            <g>
                <path d="M 14.6875 -32.140625 L 14.6875 0 L 2.75 0 L 2.75 -32.140625 Z M 14.6875 -32.140625 "/>
            </g>
        </g>
    </g>
    <g fill="#1f2937" fill-opacity="1">
        <g transform="translate(132.003644, 109.369718)">
            <g>
                <path d="M 34.4375 0 L 20.65625 0 L 15.15625 -10.5625 L 14.6875 -10.5625 L 14.6875 0 L 2.75 0 L 2.75 -32.140625 C 2.75 -32.140625 3.113281 -32.160156 3.84375 -32.203125 C 4.582031 -32.242188 5.578125 -32.296875 6.828125 -32.359375 C 8.085938 -32.421875 9.515625 -32.472656 11.109375 -32.515625 C 12.703125 -32.566406 14.351562 -32.59375 16.0625 -32.59375 C 19.425781 -32.59375 22.195312 -32.117188 24.375 -31.171875 C 26.550781 -30.222656 28.15625 -28.90625 29.1875 -27.21875 C 30.226562 -25.539062 30.75 -23.582031 30.75 -21.34375 C 30.75 -19.695312 30.539062 -18.296875 30.125 -17.140625 C 29.71875 -15.992188 29.238281 -15.066406 28.6875 -14.359375 C 28.132812 -13.660156 27.648438 -13.15625 27.234375 -12.84375 C 26.828125 -12.539062 26.625 -12.390625 26.625 -12.390625 Z M 14.6875 -18.828125 L 16.0625 -18.828125 C 16.863281 -18.828125 17.523438 -19.078125 18.046875 -19.578125 C 18.566406 -20.085938 18.828125 -20.675781 18.828125 -21.34375 C 18.828125 -22.050781 18.566406 -22.648438 18.046875 -23.140625 C 17.523438 -23.628906 16.863281 -23.875 16.0625 -23.875 L 14.6875 -23.875 Z M 14.6875 -18.828125 "/>
            </g>
        </g>
    </g>
    <g fill="#1f2937" fill-opacity="1">
        <g transform="translate(165.519539, 109.369718)">
            <g>
                <path d="M 14.6875 -11.484375 L 14.6875 -9.1875 L 28.46875 -9.1875 L 28.46875 0 L 2.75 0 L 2.75 -32.140625 L 27.546875 -32.140625 L 27.546875 -22.953125 L 14.6875 -22.953125 L 14.6875 -20.65625 L 26.625 -20.65625 L 26.625 -11.484375 Z M 14.6875 -11.484375 "/>
            </g>
        </g>
    </g>
    <g fill="#1f2937" fill-opacity="1">
        <g transform="translate(33.98348, 149.925521)">
            <g>
                <path d="M 10.09375 -14.234375 L 10.09375 -32.140625 L 22.03125 -32.140625 L 22.03125 -14.234375 C 22.03125 -11.015625 21.429688 -8.242188 20.234375 -5.921875 C 19.046875 -3.597656 17.476562 -1.800781 15.53125 -0.53125 C 13.59375 0.738281 11.476562 1.375 9.1875 1.375 C 7.195312 1.375 5.519531 1.144531 4.15625 0.6875 C 2.789062 0.226562 1.753906 -0.226562 1.046875 -0.6875 C 0.347656 -1.144531 0 -1.375 0 -1.375 L 3.21875 -11.015625 C 3.21875 -11.015625 3.519531 -10.859375 4.125 -10.546875 C 4.738281 -10.242188 5.503906 -10.09375 6.421875 -10.09375 C 7.460938 -10.09375 8.332031 -10.46875 9.03125 -11.21875 C 9.738281 -11.96875 10.09375 -12.972656 10.09375 -14.234375 Z M 10.09375 -14.234375 "/>
            </g>
        </g>
    </g>
    <g fill="#1f2937" fill-opacity="1">
        <g transform="translate(58.776056, 149.925521)">
            <g>
                <path d="M 14.6875 -11.484375 L 14.6875 -9.1875 L 28.46875 -9.1875 L 28.46875 0 L 2.75 0 L 2.75 -32.140625 L 27.546875 -32.140625 L 27.546875 -22.953125 L 14.6875 -22.953125 L 14.6875 -20.65625 L 26.625 -20.65625 L 26.625 -11.484375 Z M 14.6875 -11.484375 "/>
            </g>
        </g>
    </g>
    <g fill="#1f2937" fill-opacity="1">
        <g transform="translate(88.618981, 149.925521)">
            <g>
                <path d="M 2.75 -32.140625 L 26.625 -32.140625 L 26.625 -22.03125 L 14.6875 -22.03125 L 14.6875 -18.359375 L 24.328125 -18.359375 L 24.328125 -9.1875 L 14.6875 -9.1875 L 14.6875 0 L 2.75 0 Z M 2.75 -32.140625 "/>
            </g>
        </g>
    </g>
    <g fill="#1f2937" fill-opacity="1">
        <g transform="translate(116.166296, 149.925521)">
            <g>
                <path d="M 2.75 -32.140625 L 26.625 -32.140625 L 26.625 -22.03125 L 14.6875 -22.03125 L 14.6875 -18.359375 L 24.328125 -18.359375 L 24.328125 -9.1875 L 14.6875 -9.1875 L 14.6875 0 L 2.75 0 Z M 2.75 -32.140625 "/>
            </g>
        </g>
    </g>
    <g fill="#1f2937" fill-opacity="1">
        <g transform="translate(143.71361, 149.925521)">
            <g>
                <path d="M 34.4375 0 L 20.65625 0 L 15.15625 -10.5625 L 14.6875 -10.5625 L 14.6875 0 L 2.75 0 L 2.75 -32.140625 C 2.75 -32.140625 3.113281 -32.160156 3.84375 -32.203125 C 4.582031 -32.242188 5.578125 -32.296875 6.828125 -32.359375 C 8.085938 -32.421875 9.515625 -32.472656 11.109375 -32.515625 C 12.703125 -32.566406 14.351562 -32.59375 16.0625 -32.59375 C 19.425781 -32.59375 22.195312 -32.117188 24.375 -31.171875 C 26.550781 -30.222656 28.15625 -28.90625 29.1875 -27.21875 C 30.226562 -25.539062 30.75 -23.582031 30.75 -21.34375 C 30.75 -19.695312 30.539062 -18.296875 30.125 -17.140625 C 29.71875 -15.992188 29.238281 -15.066406 28.6875 -14.359375 C 28.132812 -13.660156 27.648438 -13.15625 27.234375 -12.84375 C 26.828125 -12.539062 26.625 -12.390625 26.625 -12.390625 Z M 14.6875 -18.828125 L 16.0625 -18.828125 C 16.863281 -18.828125 17.523438 -19.078125 18.046875 -19.578125 C 18.566406 -20.085938 18.828125 -20.675781 18.828125 -21.34375 C 18.828125 -22.050781 18.566406 -22.648438 18.046875 -23.140625 C 17.523438 -23.628906 16.863281 -23.875 16.0625 -23.875 L 14.6875 -23.875 Z M 14.6875 -18.828125 "/>
            </g>
        </g>
    </g>
    <g fill="#1f2937" fill-opacity="1">
        <g transform="translate(177.229505, 149.925521)">
            <g>
                <path d="M 14.6875 -11.484375 L 14.6875 -9.1875 L 28.46875 -9.1875 L 28.46875 0 L 2.75 0 L 2.75 -32.140625 L 27.546875 -32.140625 L 27.546875 -22.953125 L 14.6875 -22.953125 L 14.6875 -20.65625 L 26.625 -20.65625 L 26.625 -11.484375 Z M 14.6875 -11.484375 "/>
            </g>
        </g>
    </g>
    <g fill="#1f2937" fill-opacity="1">
        <g transform="translate(207.072431, 149.925521)">
            <g>
                <path d="M 12.859375 -32.140625 L 16.0625 -22.953125 L 19.28125 -32.140625 L 33.046875 -32.140625 L 22.03125 -12.390625 L 22.03125 0 L 10.09375 0 L 10.09375 -12.390625 L -0.921875 -32.140625 Z M 12.859375 -32.140625 "/>
            </g>
        </g>
    </g>
    <g fill="#1f2937" fill-opacity="1">
        <g transform="translate(36.961053, 167.881691)">
            <g>
                <path d="M 3.15625 -3.984375 L 4.65625 -7.25 L 6.296875 -7.25 L 3.90625 -2.625 L 3.90625 0 L 2.390625 0 L 2.390625 -2.625 L 0.015625 -7.25 L 1.65625 -7.25 Z M 3.15625 -3.984375 "/>
            </g>
        </g>
    </g>
    <g fill="#1f2937" fill-opacity="1">
        <g transform="translate(45.306112, 167.881691)">
            <g>
                <path d="M 6.609375 -3.46875 C 6.609375 -2.75 6.476562 -2.117188 6.21875 -1.578125 C 5.96875 -1.046875 5.609375 -0.632812 5.140625 -0.34375 C 4.671875 -0.0507812 4.132812 0.09375 3.53125 0.09375 C 2.925781 0.09375 2.382812 -0.046875 1.90625 -0.328125 C 1.4375 -0.617188 1.070312 -1.03125 0.8125 -1.5625 C 0.5625 -2.101562 0.429688 -2.722656 0.421875 -3.421875 L 0.421875 -3.78125 C 0.421875 -4.5 0.550781 -5.128906 0.8125 -5.671875 C 1.070312 -6.210938 1.4375 -6.628906 1.90625 -6.921875 C 2.375 -7.210938 2.910156 -7.359375 3.515625 -7.359375 C 4.117188 -7.359375 4.65625 -7.210938 5.125 -6.921875 C 5.59375 -6.628906 5.957031 -6.210938 6.21875 -5.671875 C 6.476562 -5.128906 6.609375 -4.5 6.609375 -3.78125 Z M 5.09375 -3.796875 C 5.09375 -4.554688 4.957031 -5.132812 4.6875 -5.53125 C 4.414062 -5.925781 4.023438 -6.125 3.515625 -6.125 C 3.015625 -6.125 2.628906 -5.925781 2.359375 -5.53125 C 2.085938 -5.144531 1.945312 -4.570312 1.9375 -3.8125 L 1.9375 -3.46875 C 1.9375 -2.71875 2.070312 -2.140625 2.34375 -1.734375 C 2.625 -1.328125 3.019531 -1.125 3.53125 -1.125 C 4.03125 -1.125 4.414062 -1.320312 4.6875 -1.71875 C 4.957031 -2.113281 5.09375 -2.6875 5.09375 -3.4375 Z M 5.09375 -3.796875 "/>
            </g>
        </g>
    </g>
    <g fill="#1f2937" fill-opacity="1">
        <g transform="translate(54.388189, 167.881691)">
            <g>
                <path d="M 6.140625 -7.25 L 6.140625 -2.46875 C 6.140625 -1.675781 5.890625 -1.050781 5.390625 -0.59375 C 4.890625 -0.132812 4.210938 0.09375 3.359375 0.09375 C 2.515625 0.09375 1.84375 -0.128906 1.34375 -0.578125 C 0.84375 -1.023438 0.585938 -1.640625 0.578125 -2.421875 L 0.578125 -7.25 L 2.078125 -7.25 L 2.078125 -2.46875 C 2.078125 -1.988281 2.1875 -1.640625 2.40625 -1.421875 C 2.632812 -1.203125 2.953125 -1.09375 3.359375 -1.09375 C 4.203125 -1.09375 4.628906 -1.535156 4.640625 -2.421875 L 4.640625 -7.25 Z M 6.140625 -7.25 "/>
            </g>
        </g>
    </g>
    <g fill="#1f2937" fill-opacity="1">
        <g transform="translate(63.141594, 167.881691)">
            <g>
                <path d="M 3.328125 -2.65625 L 2.140625 -2.65625 L 2.140625 0 L 0.640625 0 L 0.640625 -7.25 L 3.34375 -7.25 C 4.195312 -7.25 4.851562 -7.054688 5.3125 -6.671875 C 5.78125 -6.296875 6.015625 -5.757812 6.015625 -5.0625 C 6.015625 -4.5625 5.90625 -4.144531 5.6875 -3.8125 C 5.476562 -3.488281 5.160156 -3.226562 4.734375 -3.03125 L 6.296875 -0.0625 L 6.296875 0 L 4.6875 0 Z M 2.140625 -3.859375 L 3.34375 -3.859375 C 3.71875 -3.859375 4.007812 -3.953125 4.21875 -4.140625 C 4.425781 -4.335938 4.53125 -4.601562 4.53125 -4.9375 C 4.53125 -5.28125 4.429688 -5.550781 4.234375 -5.75 C 4.046875 -5.945312 3.75 -6.046875 3.34375 -6.046875 L 2.140625 -6.046875 Z M 2.140625 -3.859375 "/>
            </g>
        </g>
    </g>
    <g fill="#1f2937" fill-opacity="1">
        <g transform="translate(71.690835, 167.881691)">
            <g/>
        </g>
    </g>
    <g fill="#1f2937" fill-opacity="1">
        <g transform="translate(76.271126, 167.881691)">
            <g>
                <path d="M 6.109375 -6.046875 L 3.890625 -6.046875 L 3.890625 0 L 2.390625 0 L 2.390625 -6.046875 L 0.203125 -6.046875 L 0.203125 -7.25 L 6.109375 -7.25 Z M 6.109375 -6.046875 "/>
            </g>
        </g>
    </g>
    <g fill="#1f2937" fill-opacity="1">
        <g transform="translate(84.621169, 167.881691)">
            <g>
                <path d="M 3.328125 -2.65625 L 2.140625 -2.65625 L 2.140625 0 L 0.640625 0 L 0.640625 -7.25 L 3.34375 -7.25 C 4.195312 -7.25 4.851562 -7.054688 5.3125 -6.671875 C 5.78125 -6.296875 6.015625 -5.757812 6.015625 -5.0625 C 6.015625 -4.5625 5.90625 -4.144531 5.6875 -3.8125 C 5.476562 -3.488281 5.160156 -3.226562 4.734375 -3.03125 L 6.296875 -0.0625 L 6.296875 0 L 4.6875 0 Z M 2.140625 -3.859375 L 3.34375 -3.859375 C 3.71875 -3.859375 4.007812 -3.953125 4.21875 -4.140625 C 4.425781 -4.335938 4.53125 -4.601562 4.53125 -4.9375 C 4.53125 -5.28125 4.429688 -5.550781 4.234375 -5.75 C 4.046875 -5.945312 3.75 -6.046875 3.34375 -6.046875 L 2.140625 -6.046875 Z M 2.140625 -3.859375 "/>
            </g>
        </g>
    </g>
    <g fill="#1f2937" fill-opacity="1">
        <g transform="translate(93.17041, 167.881691)">
            <g>
                <path d="M 6.140625 -7.25 L 6.140625 -2.46875 C 6.140625 -1.675781 5.890625 -1.050781 5.390625 -0.59375 C 4.890625 -0.132812 4.210938 0.09375 3.359375 0.09375 C 2.515625 0.09375 1.84375 -0.128906 1.34375 -0.578125 C 0.84375 -1.023438 0.585938 -1.640625 0.578125 -2.421875 L 0.578125 -7.25 L 2.078125 -7.25 L 2.078125 -2.46875 C 2.078125 -1.988281 2.1875 -1.640625 2.40625 -1.421875 C 2.632812 -1.203125 2.953125 -1.09375 3.359375 -1.09375 C 4.203125 -1.09375 4.628906 -1.535156 4.640625 -2.421875 L 4.640625 -7.25 Z M 6.140625 -7.25 "/>
            </g>
        </g>
    </g>
    <g fill="#1f2937" fill-opacity="1">
        <g transform="translate(101.923818, 167.881691)">
            <g>
                <path d="M 4.40625 -1.90625 C 4.40625 -2.1875 4.304688 -2.398438 4.109375 -2.546875 C 3.910156 -2.703125 3.550781 -2.863281 3.03125 -3.03125 C 2.507812 -3.195312 2.097656 -3.363281 1.796875 -3.53125 C 0.972656 -3.96875 0.5625 -4.566406 0.5625 -5.328125 C 0.5625 -5.710938 0.671875 -6.054688 0.890625 -6.359375 C 1.117188 -6.671875 1.4375 -6.914062 1.84375 -7.09375 C 2.257812 -7.269531 2.726562 -7.359375 3.25 -7.359375 C 3.757812 -7.359375 4.21875 -7.265625 4.625 -7.078125 C 5.03125 -6.890625 5.34375 -6.625 5.5625 -6.28125 C 5.789062 -5.9375 5.90625 -5.546875 5.90625 -5.109375 L 4.40625 -5.109375 C 4.40625 -5.441406 4.300781 -5.695312 4.09375 -5.875 C 3.882812 -6.0625 3.59375 -6.15625 3.21875 -6.15625 C 2.851562 -6.15625 2.566406 -6.078125 2.359375 -5.921875 C 2.160156 -5.773438 2.0625 -5.578125 2.0625 -5.328125 C 2.0625 -5.085938 2.179688 -4.882812 2.421875 -4.71875 C 2.660156 -4.5625 3.007812 -4.414062 3.46875 -4.28125 C 4.320312 -4.019531 4.941406 -3.703125 5.328125 -3.328125 C 5.710938 -2.953125 5.90625 -2.476562 5.90625 -1.90625 C 5.90625 -1.28125 5.664062 -0.789062 5.1875 -0.4375 C 4.71875 -0.0820312 4.082031 0.09375 3.28125 0.09375 C 2.71875 0.09375 2.207031 -0.00390625 1.75 -0.203125 C 1.289062 -0.410156 0.941406 -0.691406 0.703125 -1.046875 C 0.460938 -1.398438 0.34375 -1.8125 0.34375 -2.28125 L 1.84375 -2.28125 C 1.84375 -1.476562 2.320312 -1.078125 3.28125 -1.078125 C 3.632812 -1.078125 3.910156 -1.148438 4.109375 -1.296875 C 4.304688 -1.441406 4.40625 -1.644531 4.40625 -1.90625 Z M 4.40625 -1.90625 "/>
            </g>
        </g>
    </g>
    <g fill="#1f2937" fill-opacity="1">
        <g transform="translate(110.234026, 167.881691)">
            <g>
                <path d="M 6.109375 -6.046875 L 3.890625 -6.046875 L 3.890625 0 L 2.390625 0 L 2.390625 -6.046875 L 0.203125 -6.046875 L 0.203125 -7.25 L 6.109375 -7.25 Z M 6.109375 -6.046875 "/>
            </g>
        </g>
    </g>
    <g fill="#1f2937" fill-opacity="1">
        <g transform="translate(118.584072, 167.881691)">
            <g>
                <path d="M 5.015625 -3.140625 L 2.140625 -3.140625 L 2.140625 -1.203125 L 5.515625 -1.203125 L 5.515625 0 L 0.640625 0 L 0.640625 -7.25 L 5.5 -7.25 L 5.5 -6.046875 L 2.140625 -6.046875 L 2.140625 -4.3125 L 5.015625 -4.3125 Z M 5.015625 -3.140625 "/>
            </g>
        </g>
    </g>
    <g fill="#1f2937" fill-opacity="1">
        <g transform="translate(126.36143, 167.881691)">
            <g>
                <path d="M 0.640625 0 L 0.640625 -7.25 L 2.875 -7.25 C 3.519531 -7.25 4.09375 -7.101562 4.59375 -6.8125 C 5.09375 -6.53125 5.484375 -6.125 5.765625 -5.59375 C 6.046875 -5.0625 6.1875 -4.460938 6.1875 -3.796875 L 6.1875 -3.453125 C 6.1875 -2.785156 6.046875 -2.1875 5.765625 -1.65625 C 5.492188 -1.132812 5.101562 -0.726562 4.59375 -0.4375 C 4.09375 -0.144531 3.523438 0 2.890625 0 Z M 2.140625 -6.046875 L 2.140625 -1.203125 L 2.859375 -1.203125 C 3.441406 -1.203125 3.890625 -1.390625 4.203125 -1.765625 C 4.515625 -2.148438 4.671875 -2.695312 4.671875 -3.40625 L 4.671875 -3.796875 C 4.671875 -4.535156 4.519531 -5.09375 4.21875 -5.46875 C 3.914062 -5.851562 3.46875 -6.046875 2.875 -6.046875 Z M 2.140625 -6.046875 "/>
            </g>
        </g>
    </g>
    <g fill="#1f2937" fill-opacity="1">
        <g transform="translate(135.030186, 167.881691)">
            <g/>
        </g>
    </g>
    <g fill="#1f2937" fill-opacity="1">
        <g transform="translate(139.610481, 167.881691)">
            <g>
                <path d="M 6.109375 -6.046875 L 3.890625 -6.046875 L 3.890625 0 L 2.390625 0 L 2.390625 -6.046875 L 0.203125 -6.046875 L 0.203125 -7.25 L 6.109375 -7.25 Z M 6.109375 -6.046875 "/>
            </g>
        </g>
    </g>
    <g fill="#1f2937" fill-opacity="1">
        <g transform="translate(147.960527, 167.881691)">
            <g>
                <path d="M 5.015625 -3.140625 L 2.140625 -3.140625 L 2.140625 -1.203125 L 5.515625 -1.203125 L 5.515625 0 L 0.640625 0 L 0.640625 -7.25 L 5.5 -7.25 L 5.5 -6.046875 L 2.140625 -6.046875 L 2.140625 -4.3125 L 5.015625 -4.3125 Z M 5.015625 -3.140625 "/>
            </g>
        </g>
    </g>
    <g fill="#1f2937" fill-opacity="1">
        <g transform="translate(155.737885, 167.881691)">
            <g>
                <path d="M 6.34375 -2.421875 C 6.28125 -1.640625 5.988281 -1.023438 5.46875 -0.578125 C 4.957031 -0.128906 4.273438 0.09375 3.421875 0.09375 C 2.492188 0.09375 1.757812 -0.21875 1.21875 -0.84375 C 0.6875 -1.46875 0.421875 -2.328125 0.421875 -3.421875 L 0.421875 -3.859375 C 0.421875 -4.554688 0.546875 -5.171875 0.796875 -5.703125 C 1.046875 -6.234375 1.394531 -6.640625 1.84375 -6.921875 C 2.300781 -7.210938 2.832031 -7.359375 3.4375 -7.359375 C 4.28125 -7.359375 4.957031 -7.132812 5.46875 -6.6875 C 5.976562 -6.238281 6.273438 -5.609375 6.359375 -4.796875 L 4.859375 -4.796875 C 4.816406 -5.265625 4.679688 -5.601562 4.453125 -5.8125 C 4.234375 -6.019531 3.894531 -6.125 3.4375 -6.125 C 2.9375 -6.125 2.5625 -5.945312 2.3125 -5.59375 C 2.070312 -5.238281 1.945312 -4.6875 1.9375 -3.9375 L 1.9375 -3.375 C 1.9375 -2.59375 2.054688 -2.019531 2.296875 -1.65625 C 2.535156 -1.300781 2.910156 -1.125 3.421875 -1.125 C 3.878906 -1.125 4.222656 -1.226562 4.453125 -1.4375 C 4.679688 -1.644531 4.8125 -1.972656 4.84375 -2.421875 Z M 6.34375 -2.421875 "/>
            </g>
        </g>
    </g>
    <g fill="#1f2937" fill-opacity="1">
        <g transform="translate(164.451454, 167.881691)">
            <g>
                <path d="M 6.546875 0 L 5.0625 0 L 5.0625 -3.109375 L 2.140625 -3.109375 L 2.140625 0 L 0.640625 0 L 0.640625 -7.25 L 2.140625 -7.25 L 2.140625 -4.3125 L 5.0625 -4.3125 L 5.0625 -7.25 L 6.546875 -7.25 Z M 6.546875 0 "/>
            </g>
        </g>
    </g>
    <g fill="#1f2937" fill-opacity="1">
        <g transform="translate(173.697874, 167.881691)">
            <g/>
        </g>
    </g>
    <g fill="#1f2937" fill-opacity="1">
        <g transform="translate(178.278168, 167.881691)">
            <g>
                <path d="M 2.140625 -2.5625 L 2.140625 0 L 0.640625 0 L 0.640625 -7.25 L 3.484375 -7.25 C 4.023438 -7.25 4.5 -7.148438 4.90625 -6.953125 C 5.320312 -6.753906 5.640625 -6.472656 5.859375 -6.109375 C 6.085938 -5.742188 6.203125 -5.328125 6.203125 -4.859375 C 6.203125 -4.140625 5.957031 -3.578125 5.46875 -3.171875 C 4.988281 -2.765625 4.316406 -2.5625 3.453125 -2.5625 Z M 2.140625 -3.765625 L 3.484375 -3.765625 C 3.867188 -3.765625 4.164062 -3.859375 4.375 -4.046875 C 4.582031 -4.234375 4.6875 -4.5 4.6875 -4.84375 C 4.6875 -5.195312 4.582031 -5.484375 4.375 -5.703125 C 4.164062 -5.921875 3.878906 -6.035156 3.515625 -6.046875 L 2.140625 -6.046875 Z M 2.140625 -3.765625 "/>
            </g>
        </g>
    </g>
    <g fill="#1f2937" fill-opacity="1">
        <g transform="translate(186.897126, 167.881691)">
            <g>
                <path d="M 4.75 -1.5 L 2.125 -1.5 L 1.625 0 L 0.03125 0 L 2.734375 -7.25 L 4.125 -7.25 L 6.828125 0 L 5.25 0 Z M 2.53125 -2.703125 L 4.34375 -2.703125 L 3.421875 -5.421875 Z M 2.53125 -2.703125 "/>
            </g>
        </g>
    </g>
    <g fill="#1f2937" fill-opacity="1">
        <g transform="translate(195.79993, 167.881691)">
            <g>
                <path d="M 3.328125 -2.65625 L 2.140625 -2.65625 L 2.140625 0 L 0.640625 0 L 0.640625 -7.25 L 3.34375 -7.25 C 4.195312 -7.25 4.851562 -7.054688 5.3125 -6.671875 C 5.78125 -6.296875 6.015625 -5.757812 6.015625 -5.0625 C 6.015625 -4.5625 5.90625 -4.144531 5.6875 -3.8125 C 5.476562 -3.488281 5.160156 -3.226562 4.734375 -3.03125 L 6.296875 -0.0625 L 6.296875 0 L 4.6875 0 Z M 2.140625 -3.859375 L 3.34375 -3.859375 C 3.71875 -3.859375 4.007812 -3.953125 4.21875 -4.140625 C 4.425781 -4.335938 4.53125 -4.601562 4.53125 -4.9375 C 4.53125 -5.28125 4.429688 -5.550781 4.234375 -5.75 C 4.046875 -5.945312 3.75 -6.046875 3.34375 -6.046875 L 2.140625 -6.046875 Z M 2.140625 -3.859375 "/>
            </g>
        </g>
    </g>
    <g fill="#1f2937" fill-opacity="1">
        <g transform="translate(204.34917, 167.881691)">
            <g>
                <path d="M 6.109375 -6.046875 L 3.890625 -6.046875 L 3.890625 0 L 2.390625 0 L 2.390625 -6.046875 L 0.203125 -6.046875 L 0.203125 -7.25 L 6.109375 -7.25 Z M 6.109375 -6.046875 "/>
            </g>
        </g>
    </g>
    <g fill="#1f2937" fill-opacity="1">
        <g transform="translate(212.699217, 167.881691)">
            <g>
                <path d="M 6.546875 0 L 5.046875 0 L 2.140625 -4.765625 L 2.140625 0 L 0.640625 0 L 0.640625 -7.25 L 2.140625 -7.25 L 5.0625 -2.46875 L 5.0625 -7.25 L 6.546875 -7.25 Z M 6.546875 0 "/>
            </g>
        </g>
    </g>
    <g fill="#1f2937" fill-opacity="1">
        <g transform="translate(221.94065, 167.881691)">
            <g>
                <path d="M 5.015625 -3.140625 L 2.140625 -3.140625 L 2.140625 -1.203125 L 5.515625 -1.203125 L 5.515625 0 L 0.640625 0 L 0.640625 -7.25 L 5.5 -7.25 L 5.5 -6.046875 L 2.140625 -6.046875 L 2.140625 -4.3125 L 5.015625 -4.3125 Z M 5.015625 -3.140625 "/>
            </g>
        </g>
    </g>
    <g fill="#1f2937" fill-opacity="1">
        <g transform="translate(229.718008, 167.881691)">
            <g>
                <path d="M 3.328125 -2.65625 L 2.140625 -2.65625 L 2.140625 0 L 0.640625 0 L 0.640625 -7.25 L 3.34375 -7.25 C 4.195312 -7.25 4.851562 -7.054688 5.3125 -6.671875 C 5.78125 -6.296875 6.015625 -5.757812 6.015625 -5.0625 C 6.015625 -4.5625 5.90625 -4.144531 5.6875 -3.8125 C 5.476562 -3.488281 5.160156 -3.226562 4.734375 -3.03125 L 6.296875 -0.0625 L 6.296875 0 L 4.6875 0 Z M 2.140625 -3.859375 L 3.34375 -3.859375 C 3.71875 -3.859375 4.007812 -3.953125 4.21875 -4.140625 C 4.425781 -4.335938 4.53125 -4.601562 4.53125 -4.9375 C 4.53125 -5.28125 4.429688 -5.550781 4.234375 -5.75 C 4.046875 -5.945312 3.75 -6.046875 3.34375 -6.046875 L 2.140625 -6.046875 Z M 2.140625 -3.859375 "/>
            </g>
        </g>
    </g>
</svg>