<svg xmlns="http://www.w3.org/2000/svg" xmlns:xlink="http://www.w3.org/1999/xlink" width="360" zoomAndPan="magnify" viewBox="0 0 270 44.999999" height="60" preserveAspectRatio="xMidYMid meet" version="1.0"><defs><g/><clipPath id="2229da6aec"><path d="M 3.492188 6.796875 L 41.742188 6.796875 L 41.742188 38.296875 L 3.492188 38.296875 Z M 3.492188 6.796875 " clip-rule="nonzero"/></clipPath></defs><g clip-path="url(#2229da6aec)"><path fill="#14b8a6" d="M 14.644531 37.765625 L 20.636719 31.777344 C 20.945312 31.46875 21.441406 31.46875 21.75 31.777344 L 27.027344 37.054688 C 27.597656 37.625 28.523438 37.625 29.089844 37.054688 L 30.925781 35.21875 C 31.203125 34.945312 31.351562 34.578125 31.351562 34.1875 C 31.351562 33.796875 31.203125 33.433594 30.925781 33.15625 L 22.226562 24.457031 C 21.65625 23.886719 20.730469 23.886719 20.160156 24.457031 L 10.75 33.867188 C 10.179688 34.4375 10.179688 35.363281 10.75 35.933594 L 12.582031 37.765625 C 12.867188 38.050781 13.242188 38.195312 13.613281 38.195312 C 13.988281 38.195312 14.363281 38.050781 14.644531 37.765625 Z M 39.304688 33.6875 L 41.140625 31.851562 C 41.414062 31.578125 41.566406 31.210938 41.566406 30.820312 C 41.566406 30.429688 41.414062 30.0625 41.140625 29.789062 L 29.015625 17.664062 C 28.445312 17.097656 27.519531 17.097656 26.953125 17.664062 L 25.117188 19.5 C 24.546875 20.070312 24.546875 20.996094 25.117188 21.5625 L 37.242188 33.6875 C 37.527344 33.972656 37.898438 34.113281 38.273438 34.113281 C 38.644531 34.113281 39.019531 33.972656 39.304688 33.6875 Z M 6.785156 31.367188 C 6.398438 31.367188 6.03125 31.214844 5.753906 30.9375 L 3.921875 29.105469 C 3.644531 28.828125 3.492188 28.460938 3.492188 28.074219 C 3.492188 27.683594 3.644531 27.316406 3.921875 27.042969 L 23.59375 7.367188 C 24.164062 6.796875 25.089844 6.796875 25.65625 7.367188 L 27.492188 9.203125 C 28.0625 9.769531 28.0625 10.695312 27.492188 11.265625 L 7.820312 30.9375 C 7.542969 31.214844 7.175781 31.367188 6.785156 31.367188 " fill-opacity="1" fill-rule="nonzero"/></g><g fill="#ffffff" fill-opacity="1"><g transform="translate(45.329861, 33.4955)"><g><path d="M 9.703125 -21.234375 L 9.703125 -13.953125 L 14.5625 -13.953125 L 14.5625 -21.234375 L 22.4375 -21.234375 L 22.4375 0 L 14.5625 0 L 14.5625 -7.28125 L 9.703125 -7.28125 L 9.703125 0 L 1.8125 0 L 1.8125 -21.234375 Z M 9.703125 -21.234375 "/></g></g></g><g fill="#ffffff" fill-opacity="1"><g transform="translate(69.592156, 33.4955)"><g><path d="M 9.703125 -21.234375 L 9.703125 0 L 1.8125 0 L 1.8125 -21.234375 Z M 9.703125 -21.234375 "/></g></g></g><g fill="#ffffff" fill-opacity="1"><g transform="translate(81.116743, 33.4955)"><g><path d="M 22.75 0 L 13.640625 0 L 10.015625 -6.96875 L 9.703125 -6.96875 L 9.703125 0 L 1.8125 0 L 1.8125 -21.234375 C 1.8125 -21.234375 2.054688 -21.25 2.546875 -21.28125 C 3.035156 -21.3125 3.691406 -21.34375 4.515625 -21.375 C 5.347656 -21.414062 6.289062 -21.453125 7.34375 -21.484375 C 8.394531 -21.515625 9.484375 -21.53125 10.609375 -21.53125 C 12.835938 -21.53125 14.664062 -21.21875 16.09375 -20.59375 C 17.53125 -19.96875 18.59375 -19.097656 19.28125 -17.984375 C 19.96875 -16.867188 20.3125 -15.578125 20.3125 -14.109375 C 20.3125 -13.015625 20.175781 -12.085938 19.90625 -11.328125 C 19.632812 -10.566406 19.316406 -9.953125 18.953125 -9.484375 C 18.585938 -9.023438 18.269531 -8.691406 18 -8.484375 C 17.726562 -8.285156 17.59375 -8.1875 17.59375 -8.1875 Z M 9.703125 -12.4375 L 10.609375 -12.4375 C 11.140625 -12.4375 11.578125 -12.601562 11.921875 -12.9375 C 12.265625 -13.269531 12.4375 -13.660156 12.4375 -14.109375 C 12.4375 -14.566406 12.265625 -14.957031 11.921875 -15.28125 C 11.578125 -15.601562 11.140625 -15.765625 10.609375 -15.765625 L 9.703125 -15.765625 Z M 9.703125 -12.4375 "/></g></g></g><g fill="#ffffff" fill-opacity="1"><g transform="translate(103.256086, 33.4955)"><g><path d="M 9.703125 -7.578125 L 9.703125 -6.0625 L 18.796875 -6.0625 L 18.796875 0 L 1.8125 0 L 1.8125 -21.234375 L 18.203125 -21.234375 L 18.203125 -15.15625 L 9.703125 -15.15625 L 9.703125 -13.640625 L 17.59375 -13.640625 L 17.59375 -7.578125 Z M 9.703125 -7.578125 "/></g></g></g><g fill="#ffffff" fill-opacity="1"><g transform="translate(122.969204, 33.4955)"><g/></g></g><g fill="#ffffff" fill-opacity="1"><g transform="translate(129.034775, 33.4955)"><g><path d="M 6.671875 -9.40625 L 6.671875 -21.234375 L 14.5625 -21.234375 L 14.5625 -9.40625 C 14.5625 -7.28125 14.164062 -5.445312 13.375 -3.90625 C 12.582031 -2.375 11.546875 -1.1875 10.265625 -0.34375 C 8.984375 0.488281 7.582031 0.90625 6.0625 0.90625 C 4.75 0.90625 3.640625 0.753906 2.734375 0.453125 C 1.835938 0.148438 1.15625 -0.148438 0.6875 -0.453125 C 0.226562 -0.753906 0 -0.90625 0 -0.90625 L 2.125 -7.28125 C 2.125 -7.28125 2.328125 -7.175781 2.734375 -6.96875 C 3.140625 -6.769531 3.644531 -6.671875 4.25 -6.671875 C 4.9375 -6.671875 5.507812 -6.914062 5.96875 -7.40625 C 6.4375 -7.90625 6.671875 -8.570312 6.671875 -9.40625 Z M 6.671875 -9.40625 "/></g></g></g><g fill="#ffffff" fill-opacity="1"><g transform="translate(145.411821, 33.4955)"><g><path d="M 9.703125 -7.578125 L 9.703125 -6.0625 L 18.796875 -6.0625 L 18.796875 0 L 1.8125 0 L 1.8125 -21.234375 L 18.203125 -21.234375 L 18.203125 -15.15625 L 9.703125 -15.15625 L 9.703125 -13.640625 L 17.59375 -13.640625 L 17.59375 -7.578125 Z M 9.703125 -7.578125 "/></g></g></g><g fill="#ffffff" fill-opacity="1"><g transform="translate(165.124939, 33.4955)"><g><path d="M 1.8125 -21.234375 L 17.59375 -21.234375 L 17.59375 -14.5625 L 9.703125 -14.5625 L 9.703125 -12.125 L 16.078125 -12.125 L 16.078125 -6.0625 L 9.703125 -6.0625 L 9.703125 0 L 1.8125 0 Z M 1.8125 -21.234375 "/></g></g></g><g fill="#ffffff" fill-opacity="1"><g transform="translate(183.321669, 33.4955)"><g><path d="M 1.8125 -21.234375 L 17.59375 -21.234375 L 17.59375 -14.5625 L 9.703125 -14.5625 L 9.703125 -12.125 L 16.078125 -12.125 L 16.078125 -6.0625 L 9.703125 -6.0625 L 9.703125 0 L 1.8125 0 Z M 1.8125 -21.234375 "/></g></g></g><g fill="#ffffff" fill-opacity="1"><g transform="translate(201.518392, 33.4955)"><g><path d="M 22.75 0 L 13.640625 0 L 10.015625 -6.96875 L 9.703125 -6.96875 L 9.703125 0 L 1.8125 0 L 1.8125 -21.234375 C 1.8125 -21.234375 2.054688 -21.25 2.546875 -21.28125 C 3.035156 -21.3125 3.691406 -21.34375 4.515625 -21.375 C 5.347656 -21.414062 6.289062 -21.453125 7.34375 -21.484375 C 8.394531 -21.515625 9.484375 -21.53125 10.609375 -21.53125 C 12.835938 -21.53125 14.664062 -21.21875 16.09375 -20.59375 C 17.53125 -19.96875 18.59375 -19.097656 19.28125 -17.984375 C 19.96875 -16.867188 20.3125 -15.578125 20.3125 -14.109375 C 20.3125 -13.015625 20.175781 -12.085938 19.90625 -11.328125 C 19.632812 -10.566406 19.316406 -9.953125 18.953125 -9.484375 C 18.585938 -9.023438 18.269531 -8.691406 18 -8.484375 C 17.726562 -8.285156 17.59375 -8.1875 17.59375 -8.1875 Z M 9.703125 -12.4375 L 10.609375 -12.4375 C 11.140625 -12.4375 11.578125 -12.601562 11.921875 -12.9375 C 12.265625 -13.269531 12.4375 -13.660156 12.4375 -14.109375 C 12.4375 -14.566406 12.265625 -14.957031 11.921875 -15.28125 C 11.578125 -15.601562 11.140625 -15.765625 10.609375 -15.765625 L 9.703125 -15.765625 Z M 9.703125 -12.4375 "/></g></g></g><g fill="#ffffff" fill-opacity="1"><g transform="translate(223.657735, 33.4955)"><g><path d="M 9.703125 -7.578125 L 9.703125 -6.0625 L 18.796875 -6.0625 L 18.796875 0 L 1.8125 0 L 1.8125 -21.234375 L 18.203125 -21.234375 L 18.203125 -15.15625 L 9.703125 -15.15625 L 9.703125 -13.640625 L 17.59375 -13.640625 L 17.59375 -7.578125 Z M 9.703125 -7.578125 "/></g></g></g><g fill="#ffffff" fill-opacity="1"><g transform="translate(243.370852, 33.4955)"><g><path d="M 8.484375 -21.234375 L 10.609375 -15.15625 L 12.734375 -21.234375 L 21.84375 -21.234375 L 14.5625 -8.1875 L 14.5625 0 L 6.671875 0 L 6.671875 -8.1875 L -0.609375 -21.234375 Z M 8.484375 -21.234375 "/></g></g></g></svg>